<?xml version="1.0" encoding="utf-8"?>
<!-- Uploaded to: SVG Repo, www.svgrepo.com, Generator: SVG Repo Mixer Tools -->
<svg width="800px" height="800px" viewBox="-4.83 0 53.725 53.725" xmlns="http://www.w3.org/2000/svg">
  <g id="Group_176" data-name="Group 176" transform="translate(-185.487 -444.416)">
    <g id="Group_175" data-name="Group 175">
      <g id="Group_170" data-name="Group 170">
        <path id="Path_548" data-name="Path 548" d="M228.256,490.4c0-10.119-1.35-18.539-14.779-20.365a7.621,7.621,0,0,1-11.915,0c-13.413,1.827-14.779,10.247-14.779,20.364" fill="#ffffff" stroke="#ff0050" stroke-linecap="round" stroke-linejoin="round" stroke-width="2.592"/>
      </g>
      <g id="Group_171" data-name="Group 171">
        <path id="Path_549" data-name="Path 549" d="M215.756,456.157c0,5.768-4.088,10.813-8.228,10.812s-7.949-5.051-8.229-10.812,3.139-10.445,8.229-10.445S215.756,450.388,215.756,456.157Z" fill="#ffffff"/>
        <path id="Path_550" data-name="Path 550" d="M215.756,456.157c0,5.768-4.088,10.813-8.228,10.812s-7.949-5.051-8.229-10.812,3.139-10.445,8.229-10.445S215.756,450.388,215.756,456.157Z" fill="none" stroke="#ff0050" stroke-linecap="round" stroke-linejoin="round" stroke-width="2.592"/>
      </g>
      <g id="Group_172" data-name="Group 172">
        <path id="Path_551" data-name="Path 551" d="M194.616,480.594c-1.44,3.669-1.4,9.254-1.4,13.1a38.59,38.59,0,0,0,14.307,2.753,37.808,37.808,0,0,0,14.306-2.808c0-3.491-.03-8.517-1.048-12.01" fill="#ffffff" stroke="#ff0050" stroke-linecap="round" stroke-linejoin="round" stroke-width="2.592"/>
      </g>
      <g id="Group_173" data-name="Group 173">
        <path id="Path_552" data-name="Path 552" d="M186.783,490.4c0,.709,3.008,2.372,6.4,2.372" fill="#ffffff" stroke="#ff0050" stroke-linecap="round" stroke-linejoin="round" stroke-width="2.592"/>
      </g>
      <g id="Group_174" data-name="Group 174">
        <path id="Path_553" data-name="Path 553" d="M228.256,490.4c0,.709-3.008,2.372-6.4,2.372" fill="#ffffff" stroke="#ff0050" stroke-linecap="round" stroke-linejoin="round" stroke-width="2.592"/>
      </g>
      <path id="Path_554" data-name="Path 554" d="M197.385,498.141" fill="#ffffff" stroke="#ff0050" stroke-miterlimit="10" stroke-width="2.592"/>
    </g>
    <path id="Path_555" data-name="Path 555" d="M213.045,482.787h-3.652v-3.652h-3.748v3.652h-3.652v3.748h3.652v3.652h3.748v-3.652h3.652Z" fill="#ffffff" stroke="#ff0050" stroke-linecap="round" stroke-linejoin="round" stroke-width="2.074"/>
  </g>
</svg>